# xmcd
#
# Track frame offsets:
#	150
#	11607
#	21990
#	33748
#	44899
#	57074
#	68834
#	81602
#	95603
#	107336
#	121218
#	130273
#	143057
#	155874
#	168615
#	180880
#	197016
#	212085
#	226469
#	240362
#
# Disc length: 3357 seconds
#
# Revision: 1
# Processed by: cddbd v1.5.2PL0 Copyright (c) Steve Scherf et al.
# Submitted via: audiograbber 1.83.01
#
DISCID=1a0d1b14
DTITLE=Ray Charles - Colección Grandes Maestros del Blues (Clarin)
DYEAR=1900
DGENRE=Blues
TTITLE0=Confession Blues
TTITLE1=Sittin' on Top of The World
TTITLE2=How Long Blues
TTITLE3=A Sentimental Blues
TTITLE4=I've Had My Fun
TTITLE5=See See Rider
TTITLE6=You'll Always Miss The Water (When The Well Goes Dry)
TTITLE7=Late in The Evening Blues
TTITLE8=What have I Done?
TTITLE9=Misery in My Heart
TTITLE10=All To Myself
TTITLE11=The Snow is Falling
TTITLE12=Lonely Boy
TTITLE13=Blues Before Sunrise
TTITLE14=Honey Honey
TTITLE15=Let Me Hear You Call My Name
TTITLE16=I'm Wondering And Wondering
TTITLE17=Walkin' And Talkin'
TTITLE18=Someday
TTITLE19=Guitar Blues
EXTD=
EXTT0=
EXTT1=
EXTT2=
EXTT3=
EXTT4=
EXTT5=
EXTT6=
EXTT7=
EXTT8=
EXTT9=
EXTT10=
EXTT11=
EXTT12=
EXTT13=
EXTT14=
EXTT15=
EXTT16=
EXTT17=
EXTT18=
EXTT19=
PLAYORDER=
